<?xml version="1.0" standalone="no"?>
<!DOCTYPE svg PUBLIC "-//W3C//DTD SVG 20010904//EN"
 "http://www.w3.org/TR/2001/REC-SVG-20010904/DTD/svg10.dtd">
<svg version="1.0" xmlns="http://www.w3.org/2000/svg"
 width="1024.000000pt" height="1024.000000pt" viewBox="0 0 1024.000000 1024.000000"
 preserveAspectRatio="xMidYMid meet">
<metadata>
Created by potrace 1.14, written by Peter Selinger 2001-2017
</metadata>
<g transform="translate(0.000000,1024.000000) scale(0.100000,-0.100000)"
fill="#000000" stroke="none">
<path d="M480 7406 c-73 -16 -113 -38 -166 -93 -172 -176 -283 -644 -222 -933
10 -47 20 -97 23 -112 11 -57 76 -250 101 -299 39 -77 104 -132 214 -181 l95
-43 125 0 125 0 80 43 c232 126 279 252 180 477 -45 103 -48 129 -46 412 1
249 4 279 25 361 35 136 26 200 -39 267 -24 24 -61 53 -82 64 -88 44 -291 63
-413 37z"/>
<path d="M2730 7320 c-7 -4 -18 -6 -25 -4 -19 8 -150 -24 -211 -51 -31 -14
-85 -47 -120 -73 -154 -118 -243 -391 -211 -657 13 -115 70 -224 188 -357 78
-88 128 -111 249 -116 89 -4 104 -2 203 32 235 78 340 152 372 262 13 47 15
81 9 189 l-7 133 29 25 c16 13 54 44 84 69 66 52 115 122 123 174 10 60 -20
113 -119 209 -103 101 -190 148 -294 160 -102 11 -255 14 -270 5z"/>
<path d="M1268 7244 c-68 -21 -128 -85 -176 -186 -22 -46 -44 -110 -50 -143
-6 -33 -14 -71 -18 -85 -11 -41 -14 -232 -4 -275 73 -309 94 -363 162 -417 70
-55 128 -70 286 -76 176 -6 245 9 385 80 74 38 109 63 147 106 90 101 118 229
78 370 -10 37 -21 80 -24 96 -2 16 -15 41 -27 57 -23 30 -128 89 -158 89 -12
0 -26 19 -43 55 -26 58 -157 220 -204 253 -118 84 -242 111 -354 76z"/>
<path d="M7488 7045 c-2 -2 -32 -6 -68 -9 -36 -4 -83 -11 -105 -16 -22 -5 -58
-11 -80 -15 -189 -28 -388 -80 -920 -240 -231 -70 -485 -146 -565 -170 -80
-24 -251 -75 -380 -114 -129 -40 -397 -121 -596 -181 -199 -60 -370 -113 -380
-116 -10 -4 29 43 89 104 59 61 107 116 107 122 0 6 12 28 26 50 39 59 41 150
5 238 -21 53 -38 75 -93 122 -91 79 -168 114 -323 146 -117 23 -341 23 -435
-1 -204 -52 -282 -95 -409 -227 -160 -166 -171 -298 -39 -465 92 -115 177
-173 280 -189 24 -3 50 -7 58 -9 8 -2 49 -6 90 -11 41 -4 78 -9 83 -10 4 -1
28 -2 55 -3 l47 -2 -39 -15 c-22 -8 -49 -16 -60 -19 -12 -2 -57 -15 -101 -29
-44 -13 -282 -86 -528 -160 -389 -117 -451 -134 -463 -121 -141 140 -385 235
-619 240 -249 6 -429 -55 -498 -167 -24 -38 -6 -80 51 -121 94 -67 161 -76
288 -39 78 22 200 27 262 10 75 -20 66 -42 -23 -53 -75 -10 -82 -13 -105 -49
-15 -25 -30 -36 -58 -41 -20 -4 -51 -17 -68 -30 -25 -19 -42 -24 -78 -21 -26
1 -51 7 -57 13 -6 6 -26 7 -49 3 -24 -4 -43 -3 -51 4 -8 7 -10 7 -6 0 3 -6 -9
-17 -28 -26 -20 -9 -32 -11 -28 -4 3 6 -7 -2 -24 -19 -16 -16 -28 -33 -26 -37
2 -4 -11 -9 -29 -12 -51 -8 -128 -3 -128 9 0 5 -5 2 -11 -7 -5 -10 -16 -18
-24 -18 -8 0 -22 -11 -31 -25 -32 -49 -148 -54 -188 -8 -21 23 -22 23 -71 8
-46 -14 -53 -20 -88 -79 -20 -36 -37 -73 -37 -84 0 -24 25 -110 56 -193 l24
-65 73 -26 c70 -24 74 -24 123 -9 46 14 51 19 50 43 -1 20 9 38 34 61 l35 34
1 -51 c1 -71 14 -218 20 -228 3 -5 12 -4 19 2 10 8 15 4 23 -17 6 -15 11 -22
11 -14 1 11 4 11 18 0 15 -13 16 -11 9 14 -4 18 -2 34 5 44 9 11 10 16 1 22
-6 4 -8 12 -3 20 7 11 12 8 22 -10 7 -13 12 -27 11 -31 -1 -5 3 -8 8 -8 6 0
10 -7 10 -17 0 -9 3 -13 7 -10 6 7 15 61 16 105 1 12 5 22 9 22 5 0 2 13 -7
29 -11 21 -11 31 -3 33 7 3 12 31 14 74 1 38 2 72 3 75 2 14 34 19 47 8 15
-12 93 -15 133 -5 31 7 71 34 71 47 0 6 5 7 11 4 5 -4 8 -12 6 -18 -2 -7 2
-16 9 -22 7 -5 14 -19 16 -30 2 -11 10 -25 18 -32 8 -7 11 -13 7 -13 -4 0 4
-17 18 -37 14 -21 25 -41 25 -46 0 -5 7 -15 15 -24 8 -8 13 -18 10 -23 -3 -4
2 -10 10 -14 8 -3 15 -10 15 -16 0 -6 6 -18 12 -25 27 -30 38 -44 38 -50 0 -3
15 -22 33 -42 17 -19 31 -39 30 -44 -2 -5 2 -9 7 -9 15 0 49 -37 42 -45 -6 -6
192 -1 223 5 6 1 21 2 35 1 l24 -1 -24 -17 c-14 -9 -27 -19 -30 -22 -3 -4 -22
-18 -42 -33 -25 -20 -38 -24 -42 -15 -2 6 -4 1 -3 -13 2 -29 27 -56 94 -101
27 -18 51 -37 54 -42 3 -5 10 -9 15 -10 5 -1 8 -6 6 -10 -1 -5 2 -6 6 -3 5 3
22 -6 36 -19 15 -14 32 -25 37 -25 6 0 8 -4 5 -9 -3 -5 1 -12 10 -15 8 -3 12
-11 8 -17 -5 -8 -3 -9 5 -5 8 5 14 0 18 -13 3 -12 8 -21 12 -21 10 0 105 -86
328 -296 23 -23 43 -39 43 -36 0 3 9 -3 20 -13 11 -10 17 -21 15 -25 -3 -4 3
-7 13 -6 9 0 16 -5 15 -11 -2 -7 0 -12 5 -11 12 4 54 -23 48 -30 -7 -7 55 -30
66 -25 5 2 1 18 -8 35 -9 17 -18 47 -19 66 -3 28 -1 32 13 27 9 -4 38 -11 64
-16 27 -4 54 -11 60 -16 7 -4 20 -8 28 -8 8 0 14 -8 14 -17 -1 -10 2 -15 7
-12 5 3 10 -7 10 -23 1 -27 6 -101 8 -115 1 -5 8 -8 16 -8 8 0 15 -6 15 -12 0
-10 3 -9 9 1 6 9 11 10 15 2 4 -6 12 -9 17 -6 5 4 9 2 9 -3 0 -6 10 -8 22 -4
11 3 19 1 16 -4 -3 -5 12 -10 33 -11 22 -2 47 -7 57 -12 13 -7 24 -3 45 15 16
13 25 24 22 24 -4 0 0 7 9 15 20 20 25 19 19 -5 -4 -16 -2 -19 11 -14 13 5 16
0 16 -24 0 -36 3 -39 55 -46 22 -3 54 -8 70 -11 88 -15 108 -13 129 11 14 17
32 25 56 25 61 2 69 0 102 -31 17 -16 40 -30 52 -31 12 0 35 -1 53 -2 17 -1
29 1 26 6 -2 4 0 7 6 7 5 0 13 -5 16 -10 4 -6 11 -8 16 -5 5 4 9 0 9 -7 0 -8
3 -9 8 -3 8 12 82 15 82 3 0 -4 11 -3 24 2 13 5 26 6 29 3 9 -8 68 -10 73 -2
3 6 33 5 42 -1 3 -3 51 -2 57 0 14 7 31 5 37 -5 5 -7 8 -6 8 1 0 7 25 11 71
10 39 -1 72 1 74 4 2 3 53 5 114 5 61 0 111 3 111 6 0 3 24 5 53 4 28 0 62 3
74 7 13 4 25 3 29 -3 4 -6 11 -6 20 2 8 6 14 8 14 4 0 -4 6 -3 13 3 8 7 18 7
27 2 8 -5 18 -6 22 -4 17 11 48 12 54 3 4 -6 11 -6 20 2 8 6 17 9 20 6 3 -3
19 -1 35 5 27 9 29 13 24 47 -3 20 -14 43 -25 52 -10 9 -16 20 -12 23 3 4 -2
4 -11 0 -15 -5 -17 -2 -13 21 7 35 9 37 51 42 26 3 44 -3 68 -20 28 -21 79
-43 120 -51 40 -9 67 -19 67 -27 0 -5 6 -6 14 -3 7 3 21 -2 30 -11 9 -9 16
-13 16 -10 0 4 10 1 23 -7 12 -8 33 -14 47 -13 29 2 132 15 175 21 17 2 48 7
70 10 22 2 59 13 82 24 24 11 51 17 65 13 12 -3 48 -6 78 -6 52 1 84 4 175 20
22 3 61 7 87 7 27 1 48 5 48 9 0 5 6 7 13 4 6 -2 20 0 30 5 12 6 17 5 17 -4 0
-9 3 -9 10 2 5 8 10 12 10 9 0 -4 18 -3 40 1 23 4 43 3 46 -2 3 -5 10 -5 17 0
19 15 57 21 57 10 0 -7 4 -7 13 -1 6 6 19 10 27 11 8 0 51 3 95 7 44 3 105 7
135 9 30 1 61 5 68 10 6 4 12 4 12 -1 1 -4 7 7 15 25 17 39 29 40 60 6 20 -22
34 -26 85 -28 33 -2 60 1 60 5 0 4 14 23 30 41 17 18 30 36 30 41 0 4 4 6 9 3
5 -3 11 3 14 14 7 26 39 26 62 0 10 -11 21 -20 24 -20 3 0 25 18 48 39 23 21
52 46 64 55 25 17 84 22 93 7 4 -5 33 -9 65 -8 l59 2 -33 -40 c-18 -22 -38
-41 -44 -41 -6 -1 -24 -2 -41 -3 -35 -1 -40 -24 -15 -70 8 -16 11 -32 7 -36
-4 -5 -1 -5 6 -1 7 4 12 2 12 -6 0 -10 2 -10 9 1 6 9 11 10 15 2 4 -6 11 -9
16 -6 10 6 22 -37 12 -45 -6 -5 -10 -71 -14 -267 -1 -40 -4 -70 -7 -68 -3 1
-6 -8 -6 -21 0 -13 4 -24 8 -24 5 0 5 -5 2 -10 -10 -17 -14 -230 -4 -230 5 0
8 -3 7 -7 -3 -15 16 -48 43 -74 15 -15 25 -30 22 -33 -4 -3 -2 -6 3 -6 24 0
57 59 94 170 40 120 36 118 88 43 37 -55 45 -74 46 -117 2 -71 12 -79 60 -44
21 15 47 28 56 28 10 0 40 -20 66 -43 77 -69 82 -70 264 -74 91 -2 180 -3 198
-3 19 0 32 -4 32 -12 0 -8 3 -9 8 -3 6 9 46 13 55 6 1 -2 31 -4 66 -6 62 -3
129 -11 174 -21 12 -3 42 -7 67 -9 25 -1 52 -6 61 -10 9 -3 27 -7 41 -9 13 -1
29 -5 35 -9 10 -7 83 59 83 75 0 13 58 38 89 38 48 0 122 -87 107 -127 -3 -7
-1 -13 4 -13 6 0 10 -9 10 -20 0 -10 9 -24 20 -30 11 -6 20 -8 20 -4 0 3 7 1
16 -6 8 -8 29 -15 46 -17 17 -2 36 -7 42 -13 7 -5 17 -6 23 -2 8 5 2 12 -16
20 -27 12 -31 22 -31 69 0 12 -5 25 -10 28 -5 3 -7 12 -3 20 3 8 1 15 -5 15
-5 0 -12 11 -15 25 -4 24 -3 25 13 10 9 -9 28 -18 41 -20 20 -4 17 2 -21 38
-65 60 -100 88 -100 80 0 -4 -14 7 -31 25 -22 22 -29 37 -24 52 3 11 9 21 13
21 99 19 107 17 133 -38 12 -27 26 -50 30 -53 4 -3 30 -25 59 -50 32 -28 63
-45 80 -46 27 -2 28 0 23 35 -3 20 -6 46 -7 59 -1 12 -4 22 -7 22 -3 0 -6 6
-7 13 -2 38 -16 74 -33 90 -10 10 -19 15 -19 12 0 -3 -18 4 -40 15 -23 12 -38
25 -35 31 4 5 1 8 -6 7 -6 -2 -13 2 -15 7 -3 6 8 10 23 9 34 -1 83 15 83 27 0
5 -16 19 -35 30 -43 25 -44 30 -6 19 25 -7 28 -6 24 11 -3 11 -9 22 -14 25
-15 9 -10 24 8 24 9 0 14 3 10 6 -8 8 18 34 34 34 7 0 10 3 6 6 -3 3 5 16 17
28 22 20 31 56 15 56 -15 0 -36 54 -33 85 2 16 13 37 26 46 16 13 22 27 21 55
-2 77 31 91 99 43 28 -21 38 -62 18 -74 -8 -5 -8 -11 -1 -19 6 -7 8 -16 4 -19
-3 -4 -3 -7 2 -7 4 0 41 33 81 74 82 81 92 114 44 138 -14 6 -33 19 -42 27
-10 8 -18 11 -18 6 0 -4 -6 -3 -12 2 -7 6 -26 13 -41 17 -15 4 -25 10 -23 15
3 5 0 9 -7 8 -36 -1 -46 4 -41 21 4 12 3 13 -3 4 -8 -10 -19 -9 -57 8 -26 11
-54 20 -62 20 -8 0 -14 4 -14 10 0 5 -3 9 -7 8 -5 -1 -25 3 -46 10 -21 6 -47
9 -57 7 -11 -2 -22 1 -26 6 -3 6 -11 6 -17 1 -15 -11 -88 -9 -106 2 -9 6 -12
5 -8 -1 9 -14 -54 -14 -72 0 -12 9 -13 9 -7 0 4 -7 3 -13 -3 -13 -5 0 -13 5
-16 10 -4 6 -10 8 -15 5 -11 -7 -61 20 -53 28 3 4 1 7 -5 7 -7 0 -9 10 -6 28
5 23 2 28 -16 29 -29 2 -33 8 -23 30 13 25 8 170 -6 186 -6 8 -8 17 -4 20 3 4
1 7 -5 7 -7 0 -12 6 -12 14 0 8 -13 28 -30 46 -16 18 -30 36 -30 40 0 5 -9 12
-20 15 -11 3 -20 13 -20 20 0 9 -6 12 -17 8 -11 -4 -14 -3 -9 5 4 7 1 12 -8
12 -9 0 -16 4 -16 8 0 4 -17 14 -37 21 l-37 14 45 38 c24 21 49 37 54 35 12
-4 114 122 131 160 5 13 13 22 15 19 3 -3 6 1 6 8 0 6 12 50 27 97 57 185 62
261 41 595 -11 169 -49 241 -155 295 -52 26 -105 36 -240 45 -103 7 -225 -42
-286 -115 -12 -14 -46 -34 -75 -44 -30 -11 -62 -27 -71 -36 -9 -10 -56 -30
-105 -46 -117 -37 -176 -92 -223 -209 -18 -44 -35 -96 -37 -115 -2 -19 -8 -62
-13 -95 -6 -33 -10 -77 -10 -98 0 -21 -4 -36 -8 -33 -4 2 -6 -11 -4 -30 3 -20
-2 -41 -9 -51 -10 -12 -10 -15 -1 -9 8 4 12 1 12 -10 0 -11 -6 -15 -20 -11
-11 3 -18 1 -14 -4 3 -5 12 -9 19 -9 10 0 14 -10 12 -32 -2 -18 3 -44 9 -57 7
-13 10 -30 7 -37 -3 -8 -1 -14 4 -14 5 0 10 -7 10 -15 0 -21 -14 -19 -20 4 -3
12 -18 22 -38 26 -19 4 -40 12 -48 19 -11 8 -13 8 -7 -1 5 -9 2 -11 -8 -7 -9
3 -16 10 -16 15 0 16 23 58 30 54 4 -2 7 1 7 8 0 14 11 93 17 122 19 97 28
447 14 549 -10 74 -73 207 -122 258 -46 48 -158 104 -244 122 -146 31 -170 33
-291 21 -108 -11 -286 -110 -353 -197 -14 -18 -34 -42 -45 -53 -77 -82 -96
-173 -92 -440 2 -125 7 -216 14 -224 7 -10 6 -15 -2 -18 -7 -3 -13 -9 -13 -14
0 -6 5 -7 10 -4 6 3 11 1 11 -4 1 -6 2 -19 3 -28 1 -10 6 -29 10 -42 6 -16 4
-26 -5 -32 -11 -7 -9 -9 6 -9 15 0 17 -3 7 -9 -11 -7 -11 -9 2 -14 9 -4 16
-14 16 -23 0 -10 -5 -14 -16 -10 -8 3 -12 2 -9 -4 3 -6 12 -10 20 -10 7 0 15
-6 18 -14 4 -10 0 -12 -15 -8 -29 7 -60 40 -52 54 4 6 3 8 -4 4 -6 -3 -15 1
-20 10 -8 14 -26 16 -111 15 -69 -1 -100 2 -96 9 3 6 11 8 16 4 5 -3 8 -2 7 3
-4 14 34 63 45 56 5 -3 7 -1 4 4 -4 6 7 36 24 67 38 70 70 159 76 211 2 22 8
55 13 73 8 32 6 127 -5 187 -3 17 -8 46 -11 65 -5 35 -38 132 -69 204 -35 82
-83 144 -147 188 -88 62 -143 78 -259 78 -94 0 -99 -1 -181 -43 -74 -37 -156
-95 -209 -147 -8 -8 -33 -31 -55 -51 -41 -37 -90 -91 -161 -176 -33 -39 -55
-55 -102 -72 -119 -43 -165 -154 -138 -335 11 -77 38 -118 149 -227 49 -47 88
-91 88 -99 0 -7 3 -10 7 -7 3 4 14 -3 22 -15 9 -13 21 -23 26 -24 29 -3 56
-18 52 -29 -3 -6 1 -12 9 -12 7 0 11 4 8 9 -3 4 6 3 20 -3 36 -17 24 -26 -31
-24 -26 2 -53 -1 -58 -6 -6 -4 -32 -10 -58 -12 -25 -1 -49 -6 -53 -10 -4 -3
-16 -2 -27 4 -14 8 -18 8 -13 0 5 -7 -2 -11 -18 -11 -29 0 -28 -2 -30 122 -1
38 -4 68 -8 68 -5 0 -8 8 -8 18 0 9 -32 48 -70 86 -51 50 -73 80 -81 110 -6
22 -20 59 -31 80 -16 30 -19 51 -15 90 12 110 23 136 72 184 52 49 75 94 84
162 23 180 -21 264 -162 310 -66 22 -287 25 -370 6 -66 -16 -272 -135 -341
-197 -56 -51 -103 -149 -116 -238 -21 -154 0 -314 75 -598 15 -54 31 -116 36
-137 6 -22 13 -44 17 -50 4 -6 7 -14 7 -18 0 -4 7 -16 17 -27 11 -13 13 -22 6
-29 -8 -8 -4 -9 13 -6 17 4 20 3 10 -4 -11 -8 -11 -10 0 -14 8 -3 -3 -6 -23
-6 -24 0 -36 4 -31 11 4 6 1 7 -8 1 -26 -16 -88 -24 -95 -12 -3 4 -11 5 -17 1
-19 -12 -51 -11 -66 1 -11 8 -13 8 -8 0 5 -8 -4 -12 -27 -12 -19 0 -41 -3 -48
-7 -10 -6 -10 -5 -1 5 6 7 9 18 7 25 -3 7 -1 16 5 20 6 3 11 15 11 26 0 10 4
19 10 19 5 0 7 -8 4 -17 -5 -15 -4 -15 6 1 10 15 9 20 -1 27 -10 6 -11 9 -2 9
7 0 12 3 12 8 -3 18 2 33 10 28 4 -3 6 6 3 21 -3 15 -1 24 5 20 5 -4 8 7 5 25
-4 24 -2 29 9 23 11 -7 12 -6 2 7 -7 8 -10 17 -7 20 13 14 5 377 -11 468 -9
52 -18 118 -19 145 -3 60 -31 148 -60 191 -46 67 -142 173 -166 181 -21 8 -10
14 80 42 58 18 159 50 225 71 66 21 188 59 270 85 83 26 240 75 350 110 110
35 315 100 455 144 346 108 420 132 675 213 121 38 276 88 345 109 69 22 143
46 165 54 81 28 241 86 260 95 11 5 72 33 135 62 118 55 226 113 235 127 4 8
-40 22 -47 16z m-3847 -1342 c-48 -88 -56 -271 -21 -483 5 -30 12 -69 15 -86
4 -28 8 -54 20 -144 2 -19 11 -55 20 -79 8 -24 12 -47 9 -52 -3 -5 0 -9 7 -9
6 0 9 -8 6 -20 -3 -10 -1 -20 5 -22 5 -2 10 -19 12 -38 1 -19 7 -45 14 -57 15
-27 15 -33 1 -33 -5 0 -7 5 -3 12 4 7 3 8 -5 4 -9 -6 -9 -11 0 -22 9 -11 8
-14 -2 -16 -8 0 -18 -2 -24 -3 -5 -2 -22 -3 -37 -4 -15 0 -39 -12 -53 -25 -17
-16 -36 -23 -55 -22 -16 1 -27 0 -25 -2 3 -3 -5 -14 -18 -26 -12 -12 -24 -36
-25 -56 -5 -41 -26 -59 -67 -55 -16 2 -34 4 -38 4 -5 1 -5 6 -2 11 3 6 -1 10
-9 10 -9 0 -16 9 -16 20 0 14 8 22 28 26 16 3 29 12 29 20 0 8 -3 12 -5 9 -3
-3 -14 3 -25 12 -11 10 -17 12 -13 6 4 -7 2 -13 -3 -13 -6 0 -11 6 -11 14 0 8
-5 18 -12 22 -7 5 -8 3 -3 -6 6 -10 3 -12 -12 -8 -11 3 -20 0 -21 -6 -10 -66
-15 -85 -21 -82 -4 3 -5 -11 -3 -31 4 -28 2 -34 -9 -27 -11 6 -12 5 -2 -7 6
-8 9 -19 5 -25 -10 -15 -42 -25 -42 -14 0 6 -9 5 -21 -2 -17 -11 -23 -11 -26
0 -3 6 -9 10 -14 7 -5 -4 -21 6 -35 20 -27 27 -27 26 -12 123 1 6 5 12 9 12 5
0 6 6 3 14 -7 18 20 33 85 47 46 10 49 12 38 29 -6 11 -13 17 -15 15 -3 -2
-14 1 -26 7 -11 6 -39 13 -61 16 -22 2 -43 9 -46 14 -4 6 -9 6 -14 -1 -5 -9
-10 -9 -21 0 -12 10 -12 14 -2 20 9 6 7 9 -7 9 -15 0 -17 2 -6 9 10 6 10 13 3
28 -6 11 -7 25 -2 33 5 8 7 17 4 21 -2 4 6 5 18 1 20 -5 21 -3 10 10 -11 14
-10 18 5 27 17 10 17 10 -2 11 l-20 1 20 9 c11 5 14 9 7 9 -7 1 -10 6 -7 11 3
6 1 10 -6 10 -6 0 -30 19 -52 43 -22 23 -34 33 -26 22 13 -19 13 -19 -7 -2
-27 22 -41 22 -49 -3 -7 -21 -25 -28 -25 -10 0 6 3 10 8 10 4 0 7 14 7 30 1
18 -4 30 -12 30 -7 0 -13 5 -13 11 0 5 -5 7 -10 4 -6 -3 -13 0 -15 8 -6 13
-65 20 -65 6 0 -4 -7 -10 -16 -13 -16 -6 -15 -4 22 52 52 77 77 212 60 329
l-8 51 89 27 c48 15 120 37 158 50 39 12 138 44 220 69 83 26 182 58 220 71
39 13 71 24 73 24 1 1 -2 -7 -7 -16z m-1171 -417 c0 -21 -30 -78 -57 -106 -28
-31 -38 -35 -68 -32 -19 2 -35 7 -35 11 0 7 -15 11 -52 12 -10 0 -18 5 -18 11
0 6 -6 6 -15 -2 -20 -16 -19 -28 3 -33 13 -3 11 -6 -9 -11 -31 -9 -69 17 -69
47 0 10 -9 21 -20 24 -28 8 -25 19 9 31 22 8 42 7 76 -4 45 -13 49 -12 98 13
29 14 66 30 82 34 33 8 75 11 75 5z m-1015 -286 c-3 -5 -10 -10 -16 -10 -5 0
-9 5 -9 10 0 6 7 10 16 10 8 0 12 -4 9 -10z m4395 -340 c0 -5 -2 -10 -4 -10
-3 0 -8 5 -11 10 -3 6 -1 10 4 10 6 0 11 -4 11 -10z m-1367 -32 c-8 -13 -9
-18 -12 -38 0 -5 -6 -10 -12 -10 -8 0 -8 5 1 15 7 8 9 15 5 15 -4 0 -2 7 5 15
15 18 24 20 13 3z m5256 -935 c-6 -16 -11 -28 -11 -28 -1 0 4 -10 10 -21 6
-12 8 -25 4 -29 -4 -3 -7 -11 -7 -17 0 -5 -18 -16 -39 -23 -22 -8 -44 -21 -48
-30 -5 -8 -14 -12 -20 -9 -6 4 -8 3 -4 -4 10 -17 -44 -53 -68 -46 -38 11 -75
57 -79 97 -3 25 0 37 9 37 7 0 14 5 16 10 2 8 206 83 240 89 4 0 3 -11 -3 -26z
m119 -20 c-6 -7 -13 -11 -16 -8 -3 3 -11 0 -19 -6 -7 -6 -13 -8 -13 -4 0 11
30 32 46 32 10 0 11 -4 2 -14z m-239 -240 c2 -2 -5 -3 -17 -3 -14 0 -22 6 -22
16 0 14 3 15 18 3 9 -7 19 -15 21 -16z m-1763 -217 c9 -9 10 -17 4 -21 -5 -3
-10 -1 -10 5 0 6 -4 9 -8 6 -5 -3 -9 1 -9 9 0 19 5 19 23 1z"/>
<path d="M3435 4480 c-3 -5 -1 -10 4 -10 6 0 11 5 11 10 0 6 -2 10 -4 10 -3 0
-8 -4 -11 -10z"/>
<path d="M4535 4711 c-3 -5 -2 -12 3 -15 5 -3 9 1 9 9 0 17 -3 19 -12 6z"/>
</g>
</svg>
